<?xml version="1.0" standalone="no"?>
<!DOCTYPE svg PUBLIC "-//W3C//DTD SVG 20010904//EN"
 "http://www.w3.org/TR/2001/REC-SVG-20010904/DTD/svg10.dtd">
<svg version="1.0" xmlns="http://www.w3.org/2000/svg"
 width="47.000000pt" height="44.000000pt" viewBox="0 0 47.000000 44.000000"
 preserveAspectRatio="xMidYMid meet">

<g transform="translate(0.000000,44.000000) scale(0.100000,-0.100000)"
fill="#000000" stroke="none">
<path d="M5 420 c-8 -13 12 -40 30 -40 6 0 28 -53 49 -120 26 -83 44 -125 59
-135 17 -12 54 -15 169 -15 148 0 172 6 148 35 -9 11 -46 15 -154 17 l-141 3
-40 123 c-22 68 -47 127 -55 132 -20 13 -57 13 -65 0z"/>
<path d="M137 376 c-3 -8 7 -52 22 -98 l28 -83 114 0 114 0 21 85 c14 57 18
89 11 98 -15 19 -303 17 -310 -2z"/>
<path d="M170 65 c-6 -8 -9 -23 -5 -35 9 -28 61 -28 70 0 8 25 -10 50 -35 50
-10 0 -23 -7 -30 -15z"/>
<path d="M374 66 c-3 -8 -4 -23 -2 -33 5 -25 61 -25 66 0 7 37 -51 67 -64 33z"/>
</g>
</svg>
