<?xml version="1.0" standalone="no"?>
<!DOCTYPE svg PUBLIC "-//W3C//DTD SVG 20010904//EN"
 "http://www.w3.org/TR/2001/REC-SVG-20010904/DTD/svg10.dtd">
<svg version="1.0" xmlns="http://www.w3.org/2000/svg"
 width="55.000000pt" height="49.000000pt" viewBox="0 0 55.000000 49.000000"
 preserveAspectRatio="xMidYMid meet">

<g transform="translate(0.000000,49.000000) scale(0.100000,-0.100000)"
fill="#000000" stroke="none">
<path d="M210 430 c0 -52 16 -96 44 -119 13 -11 16 -11 16 0 0 12 2 12 9 0 12
-19 31 17 31 61 0 49 -44 107 -82 108 -15 0 -18 -9 -18 -50z m67 -92 c-3 -7
-5 -2 -5 12 0 14 2 19 5 13 2 -7 2 -19 0 -25z"/>
<path d="M355 358 c-25 -13 -45 -38 -45 -56 0 -8 5 -10 13 -6 8 5 8 2 -2 -9
-28 -35 50 -9 91 30 21 20 25 30 17 40 -14 16 -47 16 -74 1z"/>
<path d="M107 354 c-20 -20 62 -84 109 -84 15 0 15 2 -2 22 -15 19 -16 20 -1
9 27 -21 21 6 -8 34 -23 24 -82 35 -98 19z"/>
<path d="M250 260 c-49 -14 -90 -41 -105 -70 -13 -26 -14 -30 -1 -30 8 0 18 5
22 11 4 8 27 10 66 6 33 -3 73 -1 89 5 20 7 39 7 59 0 30 -11 30 -11 14 13
-29 44 -101 77 -144 65z"/>
<path d="M170 160 c0 -5 6 -11 13 -14 6 -3 -17 -3 -53 0 -36 3 -67 6 -70 6
-79 2 -64 -25 28 -51 42 -12 87 -26 100 -32 13 -5 52 -9 88 -9 64 0 124 -20
124 -40 0 -6 31 -10 71 -10 l70 0 -53 60 c-80 91 -86 94 -210 96 -60 1 -108
-2 -108 -6z"/>
</g>
</svg>
