<?xml version="1.0" standalone="no"?>
<!DOCTYPE svg PUBLIC "-//W3C//DTD SVG 20010904//EN"
 "http://www.w3.org/TR/2001/REC-SVG-20010904/DTD/svg10.dtd">
<svg version="1.0" xmlns="http://www.w3.org/2000/svg"
 width="54.000000pt" height="54.000000pt" viewBox="0 0 54.000000 54.000000"
 preserveAspectRatio="xMidYMid meet">

<g transform="translate(0.000000,54.000000) scale(0.100000,-0.100000)"
fill="#000000" stroke="none">
<path d="M320 528 c-9 -7 -23 -22 -30 -33 -14 -18 -14 -19 2 -6 10 7 25 11 33
7 21 -8 20 -103 -2 -202 l-16 -76 -35 7 c-112 21 -256 102 -222 125 8 5 23 10
32 10 14 0 16 -6 12 -28 -5 -25 -1 -30 44 -51 50 -24 72 -22 72 5 0 8 7 14 15
14 8 0 16 5 16 10 1 6 2 14 3 19 2 15 16 26 16 13 0 -20 17 -13 23 9 3 11 15
23 27 26 17 5 21 12 18 41 -2 28 -8 37 -28 42 -45 11 -106 -9 -153 -50 -25
-22 -54 -40 -65 -40 -32 0 -72 -18 -72 -33 0 -34 96 -89 216 -123 35 -10 64
-23 64 -29 0 -18 -47 -110 -65 -128 -14 -14 -20 -15 -32 -5 -13 10 -14 8 -11
-12 2 -16 10 -26 24 -28 24 -3 63 49 93 126 14 35 24 46 38 44 69 -9 172 -6
186 7 21 17 8 43 -33 68 -17 10 -30 26 -30 37 0 25 -36 100 -56 117 -26 22
-27 0 -1 -31 46 -54 59 -150 21 -150 -8 0 -14 -5 -14 -11 0 -21 45 -4 48 19 4
27 14 28 36 3 28 -31 -1 -45 -84 -39 -39 3 -73 7 -75 10 -2 2 5 46 15 98 25
120 26 181 3 209 -15 18 -20 20 -33 9z m-30 -98 c16 -3 -38 -30 -59 -30 l-26
1 25 15 c25 15 25 15 1 8 -16 -4 -21 -3 -17 5 6 9 36 9 76 1z m-105 -30 c-10
-11 -22 -17 -27 -14 -12 8 11 34 30 34 13 0 12 -3 -3 -20z"/>
<path d="M301 344 c0 -11 3 -14 6 -6 3 7 2 16 -1 19 -3 4 -6 -2 -5 -13z"/>
<path d="M247 284 c-7 -7 33 -54 46 -54 12 0 8 48 -5 56 -7 5 -8 2 -3 -7 6
-11 5 -12 -6 -1 -15 13 -23 15 -32 6z"/>
<path d="M90 221 c11 -41 25 -63 54 -90 14 -14 27 -34 27 -45 1 -17 2 -18 6
-3 3 13 11 15 30 11 57 -15 47 46 -12 71 -26 10 -35 20 -35 37 0 18 -8 27 -33
36 -46 16 -47 16 -37 -17z"/>
<path d="M360 135 c-19 -19 -42 -35 -52 -35 -10 0 -18 -4 -18 -10 0 -13 4 -13
48 5 43 18 84 54 76 66 -9 15 -19 10 -54 -26z"/>
</g>
</svg>
