<?xml version="1.0" standalone="no"?>
<!DOCTYPE svg PUBLIC "-//W3C//DTD SVG 20010904//EN"
 "http://www.w3.org/TR/2001/REC-SVG-20010904/DTD/svg10.dtd">
<svg version="1.0" xmlns="http://www.w3.org/2000/svg"
 width="55.000000pt" height="55.000000pt" viewBox="0 0 55.000000 55.000000"
 preserveAspectRatio="xMidYMid meet">

<g transform="translate(0.000000,55.000000) scale(0.100000,-0.100000)"
fill="#000000" stroke="none">
<path d="M391 497 l-13 -43 43 -42 c41 -41 43 -42 78 -31 50 16 57 25 30 39
-13 7 -25 14 -27 15 -2 2 3 19 12 38 8 19 12 38 9 41 -3 3 -21 -1 -41 -10 -19
-8 -36 -13 -37 -12 -1 2 -8 13 -14 26 -17 32 -27 27 -40 -21z"/>
<path d="M252 438 c-13 -6 -39 -39 -59 -72 l-36 -61 27 -49 28 -49 -37 22
c-20 12 -40 19 -45 16 -13 -8 -120 -204 -120 -220 0 -27 27 -27 80 0 36 18 50
31 46 41 -20 48 -21 46 15 29 34 -16 34 -16 126 35 l93 52 -27 45 -27 46 52
-28 c50 -27 54 -28 70 -11 11 11 17 33 17 61 0 40 -5 50 -51 96 -55 55 -106
70 -152 47z"/>
</g>
</svg>
